HIERARCHY
ROOT Hips
{
	OFFSET 0.000000 0.000000 0.000000
	CHANNELS 6 Xposition Yposition Zposition Zrotation Yrotation Xrotation 
	JOINT LHipJoint
	{
		OFFSET 0.000000 0.000000 0.000000
		CHANNELS 3 Zrotation Yrotation Xrotation
		JOINT LeftUpLeg
		{
			OFFSET 1.363060 -1.794630 0.839290
			CHANNELS 3 Zrotation Yrotation Xrotation
			JOINT LeftLeg
			{
				OFFSET 2.448110 -6.726130 0.000000
				CHANNELS 3 Zrotation Yrotation Xrotation
				JOINT LeftFoot
				{
					OFFSET 2.562200 -7.039590 0.000000
					CHANNELS 3 Zrotation Yrotation Xrotation
					JOINT LeftToeBase
					{
						OFFSET 0.157640 -0.433110 2.322550
						CHANNELS 3 Zrotation Yrotation Xrotation
						End Site
						{
							OFFSET 0.000000 0.000000 0.000000
						}
					}
				}
			}
		}
	}
	JOINT RHipJoint
	{
		OFFSET 0.000000 0.000000 0.000000
		CHANNELS 3 Zrotation Yrotation Xrotation
		JOINT RightUpLeg
		{
			OFFSET -1.305520 -1.794630 0.839290
			CHANNELS 3 Zrotation Yrotation Xrotation
			JOINT RightLeg
			{
				OFFSET -2.542530 -6.985550 0.000000
				CHANNELS 3 Zrotation Yrotation Xrotation
				JOINT RightFoot
				{
					OFFSET -2.568260 -7.056230 0.000000
					CHANNELS 3 Zrotation Yrotation Xrotation
					JOINT RightToeBase
					{
						OFFSET -0.164730 -0.452590 2.363150
						CHANNELS 3 Zrotation Yrotation Xrotation
						End Site
						{
							OFFSET 0.000000 0.000000 0.000000
						}
					}
				}
			}
		}
	}
	JOINT LowerBack
	{
		OFFSET 0.000000 0.000000 0.000000
		CHANNELS 3 Zrotation Yrotation Xrotation
		JOINT Spine
		{
			OFFSET 0.028270 2.035590 -0.193380
			CHANNELS 3 Zrotation Yrotation Xrotation
			JOINT Spine1
			{
				OFFSET 0.056720 2.048850 -0.042750
				CHANNELS 3 Zrotation Yrotation Xrotation
				JOINT Neck
				{
					OFFSET 0.000000 0.000000 0.000000
					CHANNELS 3 Zrotation Yrotation Xrotation
					JOINT Neck1
					{
						OFFSET -0.054170 1.746240 0.172020
						CHANNELS 3 Zrotation Yrotation Xrotation
						JOINT Head
						{
							OFFSET 0.104070 1.761360 -0.123970
							CHANNELS 3 Zrotation Yrotation Xrotation
							End Site
							{
								OFFSET 0.000000 0.000000 0.000000
							}
						}
					}
				}
				JOINT LeftShoulder
				{
					OFFSET 0.000000 0.000000 0.000000
					CHANNELS 3 Zrotation Yrotation Xrotation
					JOINT LeftArm
					{
						OFFSET 3.362410 1.200890 -0.311210
						CHANNELS 3 Zrotation Yrotation Xrotation
						JOINT LeftForeArm
						{
							OFFSET 4.983000 -0.000000 -0.000000
							CHANNELS 3 Zrotation Yrotation Xrotation
							JOINT LeftHand
							{
								OFFSET 3.483560 -0.000000 -0.000000
								CHANNELS 3 Zrotation Yrotation Xrotation
								JOINT LeftFingerBase
								{
									OFFSET 0.000000 0.000000 0.000000
									CHANNELS 3 Zrotation Yrotation Xrotation
									JOINT LeftHandIndex1
									{
										OFFSET 0.715260 -0.000000 -0.000000
										CHANNELS 3 Zrotation Yrotation Xrotation
										End Site
										{
											OFFSET 0.000000 0.000000 0.000000
										}
									}
								}
								JOINT LThumb
								{
									OFFSET 0.000000 0.000000 0.000000
									CHANNELS 3 Zrotation Yrotation Xrotation
									End Site
									{
										OFFSET 0.000000 0.000000 0.000000
									}
								}
							}
						}
					}
				}
				JOINT RightShoulder
				{
					OFFSET 0.000000 0.000000 0.000000
					CHANNELS 3 Zrotation Yrotation Xrotation
					JOINT RightArm
					{
						OFFSET -3.136600 1.374050 -0.404650
						CHANNELS 3 Zrotation Yrotation Xrotation
						JOINT RightForeArm
						{
							OFFSET -5.241900 -0.000000 -0.000000
							CHANNELS 3 Zrotation Yrotation Xrotation
							JOINT RightHand
							{
								OFFSET -3.444170 -0.000000 -0.000000
								CHANNELS 3 Zrotation Yrotation Xrotation
								JOINT RightFingerBase
								{
									OFFSET 0.000000 0.000000 0.000000
									CHANNELS 3 Zrotation Yrotation Xrotation
									JOINT RightHandIndex1
									{
										OFFSET -0.622530 -0.000000 -0.000000
										CHANNELS 3 Zrotation Yrotation Xrotation
										End Site
										{
											OFFSET 0.000000 0.000000 0.000000
										}
									}
								}
								JOINT RThumb
								{
									OFFSET 0.000000 0.000000 0.000000
									CHANNELS 3 Zrotation Yrotation Xrotation
									End Site
									{
										OFFSET 0.000000 0.000000 0.000000
									}
								}
							}
						}
					}
				}
			}
		}
	}
}
MOTION
Frames: 9
Frame Time: 0.008333
15.216608 18.098807 -1.104619 -98.734836 87.866868 -93.996741 -9.000459 -5.691130 -1.750800 -6.802673 2.824981 -28.905395 5.235562 15.084035 45.126241 2.862593 -3.452511 8.700910 0.276600 3.382600 9.345700 10.782890 2.903579 2.829814 13.865781 5.184373 -5.898989 0.146637 -9.159444 22.468404 2.548205 -10.429463 -0.532321 -0.068600 1.689200 -4.647500 -0.068663 1.362062 -2.786537 0.163102 1.402777 -3.179584 0.727068 1.331835 2.371168 1.301457 1.658091 -6.836368 8.419754 0.801021 6.320181 -0.681500 0.813600 3.784200 -8.775160 -4.502810 -0.065218 -78.214791 -1.975875 -20.015772 1.023040 -6.605702 -0.562735 -2.817362 -2.169643 30.599344 14.969931 34.601360 10.144900 -7.125000 0.000000 0.000000 -24.889000 67.310300 -13.703400 14.234200 5.456895 -0.412583 67.488960 12.893184 29.955462 -11.944043 18.367375 -4.021784 1.260381 -3.785217 -2.276918 -25.030173 29.927685 -15.317400 7.125000 0.000000 0.000000 3.456000 6.688800 3.841600 
15.435255 18.098919 -1.105521 -93.648457 87.513458 -88.919889 -9.051079 -5.913815 -1.997705 -6.370433 2.780292 -29.414362 4.548465 14.409099 42.585845 2.610175 -2.402499 8.988046 0.203200 2.902200 8.006600 10.885340 2.697091 3.134611 14.241947 4.893935 -4.872586 0.355214 -8.770348 21.143972 2.436200 -10.246411 -0.183169 -0.056900 1.539000 -4.233200 0.398096 1.581298 -2.706606 0.126706 1.678280 -3.153916 0.376319 1.477955 2.385112 1.435727 1.622750 -6.633794 8.503813 0.734159 6.153460 -0.645300 0.770000 3.651500 -8.799225 -4.491224 -0.039154 -77.927787 -1.060178 -26.004905 0.838160 -5.811562 -0.484195 -2.956144 -1.928159 35.432153 15.103949 34.567421 10.202500 -7.125000 0.000000 0.000000 -24.709400 67.302000 -13.595000 14.129325 5.422288 -0.384401 67.397225 13.767043 30.436929 -12.736355 19.187466 -4.333432 1.273013 -3.657834 -3.441483 -24.909637 29.710807 -15.082600 7.125000 0.000000 0.000000 3.497200 6.321500 3.867900 
15.654917 18.099258 -1.112734 -89.230363 86.928438 -84.506506 -9.068822 -6.111092 -2.245643 -5.717034 2.699303 -29.831070 3.872335 13.686388 39.983146 2.424769 -1.554635 9.480058 0.203600 2.905100 8.014800 10.996562 2.517753 3.433828 14.784280 4.497845 -3.864165 0.553608 -8.338616 19.751106 2.227458 -9.814283 0.124646 -0.048500 1.421300 -3.908800 1.142170 1.776912 -2.687663 0.128599 1.904978 -3.110155 0.002533 1.607526 2.514138 1.618412 1.618856 -6.507669 8.403927 0.714809 5.967416 -0.696500 0.738700 3.519500 -8.794434 -4.478985 -0.013361 -77.779500 -0.310083 -30.991372 0.749879 -5.217401 -0.433701 -3.100486 -1.788210 39.081451 15.490046 35.437469 10.655600 -7.125000 0.000000 0.000000 -25.526800 68.222500 -14.595000 14.043236 5.393496 -0.330023 67.191886 14.779906 31.046809 -13.439072 19.897484 -4.629151 1.291081 -3.575383 -4.574921 -24.925796 29.768678 -15.063100 7.125000 0.000000 0.000000 3.517300 6.319300 3.890000 
15.879086 18.099370 -1.120623 -84.104022 86.441324 -79.376242 -9.078453 -6.307036 -2.493210 -5.205630 2.650509 -30.173792 3.228277 12.937770 37.384713 2.134264 -0.478111 9.901632 0.174400 2.689800 7.416400 11.108319 2.318116 3.733324 15.118317 4.170636 -2.808267 0.735813 -7.887450 18.329245 1.924437 -9.139517 0.457093 -0.031100 1.138500 -3.130000 1.703694 1.984912 -2.697783 0.150670 2.145588 -3.048748 -0.178140 1.736079 2.748180 1.770313 1.588450 -6.674122 8.073290 0.680101 5.907680 -0.858600 0.700700 3.514900 -8.746822 -4.448551 -0.001194 -77.854016 0.408214 -36.023909 0.763492 -4.755077 -0.393351 -3.225735 -1.645144 42.667345 15.841249 36.347098 11.093200 -7.125000 0.000000 0.000000 -26.549900 69.152800 -15.758600 13.974155 5.370087 -0.276089 66.861005 15.803783 31.455835 -14.153428 20.615924 -4.952051 1.286287 -3.519114 -5.427395 -24.981416 30.040998 -15.155100 7.125000 0.000000 0.000000 3.561200 6.567100 3.952400 
16.107201 18.095651 -1.127048 -79.309733 86.136481 -74.502142 -9.096229 -6.490174 -2.741610 -4.889259 2.511617 -30.474839 2.623457 12.185040 34.828449 1.703042 0.864169 10.033667 0.153500 2.524700 6.958100 11.226630 2.129616 4.037130 15.194961 3.664243 -1.880392 0.898340 -7.404639 16.855596 1.667462 -8.584406 0.840410 -0.033800 1.186100 -3.261000 2.005792 2.209842 -2.776617 0.142408 2.412414 -3.006511 -0.290336 1.876060 2.949255 1.851986 1.598385 -6.861193 7.921098 0.699496 5.907877 -0.932200 0.704000 3.548800 -8.719090 -4.409329 -0.000814 -77.782807 1.198741 -41.005014 0.764792 -4.259147 -0.345937 -3.326661 -1.478589 46.049897 16.222025 36.810765 11.454500 -7.125000 0.000000 0.000000 -26.879000 69.686500 -16.279500 13.905878 5.353540 -0.222845 66.485465 16.798403 31.652742 -14.825467 21.273864 -5.266432 1.282963 -3.468152 -6.031964 -25.136291 30.196183 -15.277300 7.125000 0.000000 0.000000 3.519100 6.722600 3.913800 
16.335992 18.085733 -1.133810 -74.969324 85.854645 -69.997640 -9.096802 -6.649949 -2.998003 -4.587275 2.278845 -30.766372 2.072488 11.445451 32.368230 1.192765 2.277413 9.665344 0.219800 3.018200 8.329500 11.360619 1.943662 4.338466 15.184189 3.234842 -0.940912 1.047214 -6.880386 15.303053 1.429025 -8.069350 1.176279 -0.039400 1.280500 -3.520900 2.256492 2.445025 -3.003502 0.095618 2.693420 -2.977334 -0.438407 2.022756 3.221950 1.392805 1.459342 -7.211007 8.426561 0.567600 6.141535 -0.599200 0.678400 3.727800 -8.751201 -4.325701 -0.037445 -77.467991 2.086460 -45.919885 0.817789 -3.838685 -0.298229 -3.392401 -1.310121 49.260198 16.444440 36.861321 11.604800 -7.125000 0.000000 0.000000 -26.739200 69.801800 -16.258200 13.804990 5.360767 -0.173929 66.149572 17.789693 31.879336 -15.427983 21.852433 -5.556583 1.300713 -3.427228 -6.631961 -25.431633 30.326179 -15.498700 7.125000 0.000000 0.000000 3.385900 6.904000 3.774600 
16.564106 18.076153 -1.139107 -70.573933 85.387836 -65.440065 -9.051081 -6.761448 -3.260407 -4.151192 2.101328 -31.042852 1.594458 10.726417 29.990782 0.298745 4.520772 10.112041 0.051300 1.461500 4.019700 11.499185 1.749150 4.630969 15.283894 3.030225 0.149843 1.179675 -6.308318 13.651383 1.109279 -7.351082 1.634834 -0.045300 1.373200 -3.776200 2.674633 2.797434 -3.208153 0.046156 3.110416 -2.946969 -0.720225 2.262104 3.385526 1.936450 1.589241 -6.902391 8.027054 0.684160 5.697950 -0.859300 0.681400 3.431100 -8.739411 -4.288943 -0.024018 -77.129443 3.276580 -50.678278 0.977047 -3.612800 -0.254443 -3.426133 -1.121639 52.377947 16.832577 36.430699 11.750400 -7.125000 0.000000 0.000000 -25.597000 69.536300 -15.382500 13.757226 5.270383 -0.107941 65.821072 18.667349 31.927154 -15.983889 22.384990 -5.840360 1.302345 -3.404726 -7.010971 -25.725786 30.570669 -15.768000 7.125000 0.000000 0.000000 3.280600 7.217200 3.672500 
16.790530 18.070518 -1.142939 -66.492499 84.701298 -61.254057 -8.963325 -6.823628 -3.501510 -3.489450 1.889290 -31.201637 1.193681 10.056595 27.806359 -0.531278 6.492615 10.139894 0.017200 0.847100 2.328100 11.625083 1.538133 4.926080 15.557649 2.953289 1.454225 1.296458 -5.637644 11.762526 0.712171 -6.445569 2.316035 -0.047600 1.408100 -3.872500 3.264191 3.147566 -3.212467 0.024188 3.523681 -2.944078 -0.945406 2.495340 3.438162 1.797999 1.512910 -6.960366 8.126170 0.602985 5.642755 -0.761500 0.638100 3.420100 -8.743139 -4.225683 -0.056708 -76.867812 4.401508 -55.535310 1.132279 -3.341495 -0.211861 -3.482769 -0.943951 55.487310 17.342096 36.459783 12.100800 -7.125000 0.000000 0.000000 -25.058200 69.730300 -15.151300 13.678250 5.249270 -0.064014 65.483609 19.505052 31.874281 -16.547147 22.909977 -6.127917 1.268924 -3.370513 -7.128981 -25.830024 30.630781 -15.825000 7.125000 0.000000 0.000000 3.249800 7.268400 3.640400 
17.017743 18.064770 -1.149025 -61.994659 84.088498 -56.565114 -8.844797 -6.856381 -3.754390 -2.932871 1.535464 -31.361094 0.862813 9.466026 25.874132 -1.470355 8.566972 9.904033 0.006800 0.533000 1.464700 11.752826 1.254671 5.241956 15.610769 3.396739 3.178558 1.414889 -4.762120 9.303661 0.385295 -5.776077 3.372911 -0.012400 0.718500 -1.974600 3.657777 3.462678 -3.344428 -0.008859 3.885432 -2.974352 -1.100764 2.704022 3.397846 1.865775 1.556521 -6.760584 8.055709 0.656116 5.583582 -0.781000 0.654000 3.340700 -8.744712 -4.174620 -0.078624 -76.547756 5.520430 -60.584029 1.284692 -3.021329 -0.165305 -3.532446 -0.816660 58.656179 17.301019 36.929929 12.162400 -7.125000 0.000000 0.000000 -25.987400 70.144400 -15.974600 13.609124 5.219225 -0.020981 65.192985 20.260465 32.141219 -17.068214 23.380092 -6.388008 1.259218 -3.333842 -7.377185 -26.005448 30.632387 -15.916300 7.125000 0.000000 0.000000 3.160100 7.282100 3.540300 
